<svg version="1.1" xmlns="http://www.w3.org/2000/svg" viewBox="-41.46050006569692 -56.715368094518176 83.04818709091947 123.22740764577065" fill="none" stroke="black" stroke-width="0.6%" vector-effect="non-scaling-stroke">
    <path d="M 20.00886 -3.42474 A 20 14.54754 360 0 1 -19.99114 -3.42474" />
    <path d="M -14.13643 -51.45219 A 20 14.54754 360 0 1 20.00886 -41.16782 A 20 14.54754 360 0 1 -19.99114 -41.16782 A 20 14.54754 360 0 1 -14.13643 -51.45219 Z" />
    <path d="M 17.69048 9.43072 A 25 18.18443 180 0 0 20.00886 -14.33539" />
    <path d="M -19.99114 -14.33539 A 25 18.18443 180 0 0 17.69048 9.43072" />
    <path d="M 27.38436 26.12918 C 27.53 26.02 27.68 25.91 27.82315 25.80492 C 27.97 25.7 28.11 25.59 28.25593 25.47522 C 28.4 25.36 28.54 25.25 28.68259 25.14014 C 28.82 25.03 28.96 24.91 29.10301 24.79974 C 29.24 24.69 29.38 24.57 29.51707 24.45406 C 29.65 24.34 29.79 24.22 29.92468 24.10318 C 30.06 23.99 30.19 23.87 30.32571 23.74715 C 30.46 23.63 30.59 23.51 30.72005 23.38605 C 30.85 23.26 30.98 23.14 31.1076 23.01992 C 31.24 22.9 31.36 22.77 31.48824 22.64885 C 31.61 22.52 31.74 22.4 31.86188 22.27291 C 31.99 22.15 32.11 22.02 32.2284 21.89215 C 32.35 21.76 32.47 21.64 32.5877 21.50667 C 32.71 21.38 32.82 21.25 32.93968 21.11654 C 33.06 20.99 33.17 20.85 33.28424 20.72183 C 33.4 20.59 33.51 20.46 33.62126 20.32262 C 33.73 20.19 33.84 20.05 33.95066 19.91901 C 34.06 19.78 34.17 19.65 34.27233 19.51107 C 34.38 19.37 34.48 19.24 34.58618 19.09889 C 34.69 18.96 34.79 18.82 34.8921 18.68256 C 34.99 18.54 35.09 18.4 35.19 18.26217 C 35.29 18.12 35.38 17.98 35.47979 17.83781 C 35.58 17.7 35.67 17.55 35.76138 17.40958 C 35.85 17.27 35.94 17.12 36.03466 16.97758 C 36.12 16.83 36.21 16.69 36.29955 16.5419 C 36.39 16.4 36.47 16.25 36.55595 16.10265 C 36.72 15.81 36.89 15.51 37.04296 15.21384 C 37.36 14.62 37.65 14.01 37.91129 13.39803 C 40.42 7.65 40.69 1.22 38.63694 -4.65607 C 36.06 -12.75 28.29 -19.93 20.00886 -23.49507" />
    <path d="M -19.99114 -23.49503 C -20.32 -23.35 -20.64 -23.2 -20.95549 -23.05018 C -21.27 -22.9 -21.59 -22.74 -21.9044 -22.58391 C -22.22 -22.42 -22.53 -22.26 -22.83711 -22.09649 C -23.15 -21.93 -23.45 -21.76 -23.75287 -21.58817 C -24.06 -21.42 -24.35 -21.24 -24.65094 -21.05923 C -24.95 -20.88 -25.24 -20.7 -25.53059 -20.50996 C -25.82 -20.32 -26.11 -20.13 -26.39107 -19.94067 C -26.67 -19.75 -26.95 -19.55 -27.23165 -19.35167 C -27.4 -19.23 -27.57 -19.11 -27.73095 -18.98532 C -27.9 -18.86 -28.06 -18.74 -28.22255 -18.61197 C -28.39 -18.49 -28.55 -18.36 -28.7063 -18.2317 C -28.87 -18.1 -29.02 -17.97 -29.18201 -17.84458 C -29.34 -17.71 -29.5 -17.58 -29.64952 -17.45071 C -29.8 -17.32 -29.96 -17.18 -30.10867 -17.05016 C -30.26 -16.92 -30.41 -16.78 -30.55928 -16.64303 C -30.71 -16.51 -30.86 -16.37 -31.00121 -16.22942 C -31.15 -16.09 -31.29 -15.95 -31.43429 -15.80942 C -31.58 -15.67 -31.72 -15.53 -31.85836 -15.38314 C -32 -15.24 -32.14 -15.1 -32.27326 -14.95067 C -32.41 -14.81 -32.55 -14.66 -32.67885 -14.51214 C -32.81 -14.36 -32.94 -14.22 -33.07497 -14.06765 C -33.21 -13.92 -33.33 -13.77 -33.46148 -13.61732 C -33.59 -13.47 -33.71 -13.31 -33.83822 -13.16127 C -33.96 -13.01 -34.08 -12.85 -34.20505 -12.69962 C -34.45 -12.39 -34.68 -12.08 -34.90841 -11.76003 C -35.14 -11.44 -35.36 -11.12 -35.57044 -10.79959 C -36 -10.15 -36.4 -9.49 -36.76618 -8.82071 C -37.5 -7.48 -38.12 -6.09 -38.61601 -4.66536 C -40.43 0.55 -40.45 6.21 -38.6517 11.43666 C -26.94 36.22 3.1 41.23 27.38436 26.12918" />
    <path d="M -19.99114 -41.16782 L -19.99114 -3.42474" />
    <path d="M 20.00886 -41.16782 L 20.00886 -3.42474" />
    <path d="M 27.38436 36.42275 C 27.54 36.31 27.69 36.2 27.83495 36.08962 C 27.98 35.98 28.13 35.86 28.27921 35.75076 C 28.43 35.64 28.57 35.52 28.717 35.40623 C 28.86 35.29 29.01 35.17 29.14819 35.05608 C 29.29 34.94 29.43 34.82 29.57268 34.70038 C 29.71 34.58 29.85 34.46 29.99033 34.3392 C 30.13 34.22 30.27 34.1 30.40103 33.9726 C 30.54 33.85 30.67 33.73 30.80466 33.60065 C 30.94 33.48 31.07 33.35 31.20109 33.22343 C 31.33 33.1 31.46 32.97 31.59022 32.84101 C 31.72 32.71 31.85 32.58 31.97191 32.45346 C 32.1 32.32 32.22 32.19 32.34607 32.06086 C 32.47 31.93 32.59 31.8 32.71258 31.66331 C 32.83 31.53 32.95 31.4 33.07132 31.26087 C 33.19 31.13 33.31 30.99 33.42219 30.85364 C 33.54 30.72 33.65 30.58 33.76508 30.4417 C 33.88 30.3 33.99 30.16 34.09987 30.02514 C 34.21 29.89 34.32 29.75 34.42646 29.60407 C 34.53 29.46 34.64 29.32 34.74475 29.17857 C 34.85 29.04 34.95 28.89 35.05462 28.74873 C 35.16 28.6 35.26 28.46 35.35599 28.31467 C 35.46 28.17 35.55 28.02 35.64873 27.87648 C 35.74 27.73 35.84 27.58 35.93277 27.43427 C 36.03 27.29 36.12 27.14 36.20798 26.98814 C 36.3 26.84 36.39 26.69 36.47428 26.53821 C 36.56 26.39 36.65 26.24 36.73158 26.08458 C 36.82 25.93 36.9 25.78 36.97976 25.62737 C 37.06 25.47 37.14 25.32 37.21875 25.16669 C 37.53 24.55 37.82 23.92 38.08082 23.29173 C 40.03 18.6 40.52 13.48 39.46 8.58441" />
    <path d="M -39.44228 8.58441 C -39.49 8.8 -39.53 9.02 -39.57386 9.23974 C -39.61 9.46 -39.65 9.68 -39.68758 9.89748 C -39.72 10.12 -39.75 10.34 -39.78335 10.55729 C -39.81 10.78 -39.84 11 -39.86109 11.21881 C -39.88 11.44 -39.9 11.66 -39.92075 11.88168 C -39.94 12.1 -39.95 12.32 -39.96228 12.54555 C -39.97 12.77 -39.98 12.99 -39.98565 13.21005 C -39.99 13.43 -39.99 13.65 -39.99082 13.87481 C -39.99 14.12 -39.98 14.36 -39.97565 14.60123 C -39.97 14.84 -39.95 15.09 -39.93877 15.3271 C -39.92 15.57 -39.9 15.81 -39.88022 16.05196 C -39.86 16.29 -39.83 16.53 -39.80005 16.77532 C -39.77 17.02 -39.74 17.26 -39.69833 17.49672 C -39.66 17.74 -39.62 17.98 -39.57517 18.2157 C -39.53 18.45 -39.48 18.69 -39.43066 18.93181 C -39.38 19.17 -39.32 19.41 -39.26494 19.64461 C -39.21 19.88 -39.14 20.12 -39.07815 20.35365 C -39.01 20.59 -38.94 20.82 -38.87044 21.0585 C -38.8 21.29 -38.72 21.53 -38.64199 21.75874 C -38.56 21.99 -38.48 22.22 -38.393 22.45395 C -38.31 22.68 -38.22 22.91 -38.12367 23.14373 C -38.03 23.37 -37.93 23.6 -37.83424 23.82766 C -37.73 24.05 -37.63 24.28 -37.52493 24.50535 C -37.42 24.73 -37.31 24.95 -37.19602 25.17642 C -37.05 25.46 -36.91 25.74 -36.75417 26.01171 C -36.6 26.29 -36.44 26.56 -36.2821 26.8352 C -35.96 27.38 -35.61 27.92 -35.24965 28.44408 C -34.52 29.5 -33.72 30.52 -32.84891 31.4921 C -31.11 33.44 -29.09 35.22 -26.85212 36.79062 C -11.42 47.82 13.26 47.14 27.38436 36.42275" />
    <path d="M 27.38436 46.71632 C 27.54 46.61 27.69 46.5 27.83495 46.38319 C 27.98 46.27 28.13 46.16 28.27921 46.04433 C 28.43 45.93 28.57 45.82 28.717 45.6998 C 28.86 45.58 29.01 45.47 29.14819 45.34965 C 29.29 45.23 29.43 45.11 29.57268 44.99395 C 29.71 44.87 29.85 44.75 29.99033 44.63277 C 30.13 44.51 30.27 44.39 30.40103 44.26617 C 30.54 44.14 30.67 44.02 30.80466 43.89422 C 30.94 43.77 31.07 43.64 31.20109 43.517 C 31.33 43.39 31.46 43.26 31.59022 43.13458 C 31.72 43.01 31.85 42.88 31.97191 42.74703 C 32.1 42.62 32.22 42.49 32.34607 42.35443 C 32.47 42.22 32.59 42.09 32.71258 41.95688 C 32.83 41.82 32.95 41.69 33.07132 41.55444 C 33.19 41.42 33.31 41.28 33.42219 41.1472 C 33.54 41.01 33.65 40.87 33.76508 40.73527 C 33.88 40.6 33.99 40.46 34.09987 40.31871 C 34.21 40.18 34.32 40.04 34.42646 39.89764 C 34.53 39.76 34.64 39.61 34.74475 39.47213 C 34.85 39.33 34.95 39.19 35.05462 39.0423 C 35.16 38.9 35.26 38.75 35.35599 38.60824 C 35.46 38.46 35.55 38.32 35.64873 38.17005 C 35.74 38.02 35.84 37.88 35.93277 37.72784 C 36.03 37.58 36.12 37.43 36.20798 37.28171 C 36.3 37.13 36.39 36.98 36.47428 36.83178 C 36.56 36.68 36.65 36.53 36.73158 36.37815 C 36.82 36.23 36.9 36.07 36.97976 35.92094 C 37.06 35.77 37.14 35.61 37.21875 35.46026 C 37.53 34.84 37.82 34.22 38.08082 33.5853 C 40.03 28.89 40.52 23.77 39.46001 18.87803" />
    <path d="M -39.44229 18.878 C -39.49 19.1 -39.53 19.31 -39.57387 19.53333 C -39.61 19.75 -39.65 19.97 -39.68758 20.19107 C -39.72 20.41 -39.75 20.63 -39.78335 20.85087 C -39.81 21.07 -39.84 21.29 -39.86109 21.51239 C -39.88 21.73 -39.9 21.95 -39.92075 22.17526 C -39.94 22.4 -39.95 22.62 -39.96228 22.83912 C -39.97 23.06 -39.98 23.28 -39.98565 23.50362 C -39.99 23.73 -39.99 23.95 -39.99082 24.16838 C -39.99 24.41 -39.98 24.65 -39.97565 24.89479 C -39.97 25.14 -39.95 25.38 -39.93877 25.62067 C -39.92 25.86 -39.9 26.1 -39.88022 26.34553 C -39.86 26.59 -39.83 26.83 -39.80005 27.06889 C -39.77 27.31 -39.74 27.55 -39.69833 27.79029 C -39.66 28.03 -39.62 28.27 -39.57517 28.50927 C -39.53 28.75 -39.48 28.99 -39.43066 29.22538 C -39.38 29.46 -39.32 29.7 -39.26494 29.93818 C -39.21 30.18 -39.14 30.41 -39.07815 30.64721 C -39.01 30.88 -38.94 31.12 -38.87044 31.35207 C -38.8 31.59 -38.72 31.82 -38.64199 32.05231 C -38.56 32.28 -38.48 32.52 -38.393 32.74752 C -38.31 32.98 -38.22 33.21 -38.12367 33.43729 C -38.03 33.67 -37.93 33.89 -37.83424 34.12123 C -37.73 34.35 -37.63 34.57 -37.52493 34.79892 C -37.42 35.02 -37.31 35.25 -37.19602 35.46999 C -37.05 35.75 -36.91 36.03 -36.75417 36.30528 C -36.6 36.58 -36.44 36.86 -36.2821 37.12877 C -35.96 37.67 -35.61 38.21 -35.24965 38.73765 C -34.52 39.79 -33.72 40.81 -32.84891 41.78567 C -31.11 43.74 -29.09 45.51 -26.85212 47.08419 C -11.42 58.11 13.26 57.44 27.38436 46.71632" />
    <path d="M 27.38436 57.00989 C 27.53 56.9 27.68 56.79 27.82315 56.68563 C 27.97 56.58 28.11 56.47 28.25593 56.35593 C 28.4 56.25 28.54 56.13 28.68259 56.02085 C 28.82 55.91 28.96 55.79 29.10301 55.68044 C 29.24 55.57 29.38 55.45 29.51707 55.33477 C 29.65 55.22 29.79 55.1 29.92468 54.98389 C 30.06 54.87 30.19 54.75 30.32571 54.62786 C 30.46 54.51 30.59 54.39 30.72005 54.26675 C 30.85 54.15 30.98 54.02 31.1076 53.90063 C 31.24 53.78 31.36 53.65 31.48824 53.52956 C 31.61 53.41 31.74 53.28 31.86188 53.15361 C 31.99 53.03 32.11 52.9 32.2284 52.77286 C 32.35 52.65 32.47 52.52 32.5877 52.38738 C 32.71 52.26 32.82 52.13 32.93968 51.99725 C 33.06 51.87 33.17 51.73 33.28424 51.60254 C 33.4 51.47 33.51 51.34 33.62126 51.20333 C 33.73 51.07 33.84 50.93 33.95066 50.79972 C 34.06 50.66 34.17 50.53 34.27233 50.39178 C 34.38 50.26 34.48 50.12 34.58618 49.9796 C 34.69 49.84 34.79 49.7 34.8921 49.56326 C 34.99 49.42 35.09 49.28 35.19 49.14287 C 35.29 49 35.38 48.86 35.47979 48.71852 C 35.58 48.58 35.67 48.43 35.76138 48.29029 C 35.85 48.15 35.94 48 36.03466 47.85828 C 36.12 47.71 36.21 47.57 36.29955 47.42261 C 36.39 47.28 36.47 47.13 36.55595 46.98335 C 36.64 46.84 36.72 46.69 36.80379 46.54063 C 36.88 46.39 36.96 46.24 37.04296 46.09455 C 37.36 45.5 37.65 44.89 37.91129 44.27874 C 40 39.48 40.55 34.21 39.46002 29.17158" />
    <path d="M -39.44228 29.17159 C -39.47 29.31 -39.5 29.44 -39.52652 29.58044 C -39.55 29.72 -39.58 29.85 -39.60381 29.99027 C -39.63 30.13 -39.65 30.26 -39.67412 30.40101 C -39.7 30.54 -39.72 30.68 -39.73744 30.81256 C -39.76 30.95 -39.78 31.09 -39.79374 31.22483 C -39.81 31.36 -39.83 31.5 -39.84302 31.63775 C -39.86 31.78 -39.87 31.91 -39.88524 32.05122 C -39.9 32.19 -39.91 32.33 -39.92042 32.46516 C -39.93 32.6 -39.94 32.74 -39.94852 32.87949 C -39.96 33.02 -39.96 33.16 -39.96955 33.29411 C -39.98 33.43 -39.98 33.57 -39.9835 33.70895 C -39.99 33.85 -39.99 33.99 -39.99036 34.12391 C -39.99 34.26 -39.99 34.4 -39.99014 34.53892 C -39.99 34.68 -39.99 34.82 -39.98283 34.95388 C -39.98 35.09 -39.97 35.23 -39.96844 35.3687 C -39.96 35.51 -39.96 35.65 -39.94696 35.78331 C -39.94 35.92 -39.93 36.06 -39.91841 36.19762 C -39.91 36.34 -39.9 36.47 -39.88279 36.61153 C -39.87 36.75 -39.86 36.89 -39.84012 37.02498 C -39.82 37.16 -39.81 37.3 -39.7904 37.43786 C -39.77 37.58 -39.75 37.71 -39.73366 37.85009 C -39.71 37.99 -39.69 38.12 -39.6699 38.26159 C -39.65 38.4 -39.62 38.54 -39.59915 38.67227 C -39.57 38.81 -39.55 38.95 -39.52142 39.08205 C -39.49 39.22 -39.47 39.35 -39.43674 39.49083 C -39.41 39.63 -39.38 39.76 -39.34514 39.89854 C -39.28 40.17 -39.21 40.44 -39.14126 40.71039 C -39 41.25 -38.83 41.79 -38.6517 42.31736 C -36.01 50.17 -29.37 56.86 -20.86015 60.85146 C -8.96 67.02 11.81 67.93 27.38436 57.00989" />
</svg>