<svg version="1.1" xmlns="http://www.w3.org/2000/svg" viewBox="-41.00186001674253 -44.76932427111699 82.02929614533271 89.53064606213455" fill="none" stroke="black" stroke-width="0.6%" vector-effect="non-scaling-stroke">
    <path d="M 7.29382 4.0255 C 7 4.06 6.7 4.09 6.39882 4.11459 C 6.1 4.14 5.8 4.17 5.49943 4.19198 C 5.2 4.22 4.9 4.24 4.59629 4.25764 C 4.29 4.28 3.99 4.3 3.69002 4.3115 C 3.39 4.33 3.08 4.34 2.78125 4.35354 C 2.48 4.37 2.17 4.38 1.87064 4.38373 C 1.57 4.39 1.26 4.4 0.95882 4.40205 C 0.65 4.41 0.35 4.41 0.04645 4.40848 C -0.26 4.41 -0.57 4.41 -0.87534 4.40291 C -1.18 4.4 -1.49 4.39 -1.79661 4.38521 C -2.1 4.38 -2.41 4.37 -2.71669 4.35539 C -3.02 4.34 -3.33 4.33 -3.63491 4.31347 C -3.94 4.3 -4.25 4.28 -4.55062 4.25948 C -4.86 4.24 -5.16 4.22 -5.46315 4.19345 C -5.77 4.17 -6.07 4.14 -6.37185 4.11544 C -6.67 4.09 -6.98 4.06 -7.2761 4.0255" />
    <path d="M 7.29382 17.02905 C 7 17.06 6.7 17.09 6.39882 17.11813 C 6.1 17.15 5.8 17.17 5.49943 17.19553 C 5.2 17.22 4.9 17.24 4.59629 17.26118 C 4.29 17.28 3.99 17.3 3.69002 17.31504 C 3.39 17.33 3.08 17.35 2.78125 17.35709 C 2.48 17.37 2.17 17.38 1.87064 17.38727 C 1.57 17.4 1.26 17.4 0.95882 17.40559 C 0.65 17.41 0.35 17.41 0.04645 17.41202 C -0.26 17.41 -0.57 17.41 -0.87534 17.40645 C -1.18 17.4 -1.49 17.4 -1.79661 17.38875 C -2.1 17.38 -2.41 17.37 -2.71669 17.35893 C -3.02 17.35 -3.33 17.33 -3.63491 17.31701 C -3.94 17.3 -4.25 17.28 -4.55062 17.26302 C -4.86 17.24 -5.16 17.22 -5.46315 17.197 C -5.77 17.17 -6.07 17.15 -6.37185 17.11899 C -6.67 17.09 -6.98 17.06 -7.2761 17.02905" />
    <path d="M -7.2761 30.03259 C -6.97 30.06 -6.67 30.09 -6.36602 30.12307 C -6.06 30.15 -5.76 30.18 -5.45143 30.20146 C -5.15 30.23 -4.84 30.25 -4.53297 30.26772 C -4.23 30.29 -3.92 30.31 -3.61131 30.32178 C -3.3 30.34 -3 30.35 -2.68711 30.36362 C -2.38 30.38 -2.07 30.39 -1.76105 30.3932 C -1.45 30.4 -1.14 30.41 -0.83381 30.4105 C -0.52 30.41 -0.22 30.42 0.09392 30.41552 C 0.4 30.42 0.7 30.41 1.00034 30.40855 C 1.3 30.4 1.6 30.4 1.90619 30.38986 C 2.21 30.38 2.51 30.37 2.81083 30.35945 C 3.11 30.35 3.41 30.33 3.71362 30.31733 C 4.01 30.3 4.31 30.28 4.61394 30.26355 C 4.91 30.24 5.21 30.22 5.51115 30.19814 C 5.81 30.17 6.11 30.15 6.40465 30.12113 C 6.7 30.09 7 30.06 7.29382 30.03259 C 7.72 29.99 8.14 29.94 8.55737 29.88611 C 8.98 29.83 9.4 29.78 9.81262 29.71606 C 10.23 29.66 10.64 29.59 11.05841 29.52254 C 11.47 29.45 11.88 29.38 12.29362 29.30563 C 12.7 29.23 13.11 29.15 13.51712 29.06541 C 13.92 28.98 14.33 28.89 14.7278 28.80194 C 15.13 28.71 15.53 28.61 15.92457 28.51529 C 16.32 28.42 16.72 28.31 17.10635 28.20551 C 17.5 28.1 17.89 27.99 18.27206 27.87267 C 18.66 27.76 19.04 27.64 19.42066 27.5168 C 19.8 27.39 20.18 27.27 20.55111 27.13794 C 20.92 27.01 21.3 26.87 21.66237 26.73613 C 22.03 26.6 22.39 26.46 22.75343 26.31138 C 23.11 26.17 23.47 26.02 23.8233 25.86373 C 24.18 25.71 24.53 25.55 24.87098 25.39318 C 25.22 25.23 25.56 25.07 25.89551 24.89974" />
    <path d="M 17.69048 -19.35997 A 25 12.46193 180 0 0 21.94843 -34.14449 A 25 12.46193 180 1 0 17.69048 -19.35997 Z" />
    <path d="M 25.89551 -1.10735 C 26.03 -1.17 26.16 -1.24 26.29064 -1.30716 C 26.42 -1.37 26.55 -1.44 26.68196 -1.51045 C 26.81 -1.58 26.94 -1.65 27.06941 -1.71725 C 27.2 -1.79 27.33 -1.86 27.45291 -1.92756 C 27.58 -2 27.71 -2.07 27.83241 -2.14139 C 27.96 -2.21 28.08 -2.29 28.20785 -2.35874 C 28.33 -2.43 28.46 -2.51 28.57914 -2.57962 C 28.7 -2.65 28.82 -2.73 28.94623 -2.80403 C 29.07 -2.88 29.19 -2.96 29.30904 -3.03198 C 29.43 -3.11 29.55 -3.19 29.66749 -3.26347 C 29.79 -3.34 29.9 -3.42 30.02152 -3.49849 C 30.14 -3.58 30.26 -3.66 30.37104 -3.73705 C 30.49 -3.82 30.6 -3.9 30.71598 -3.97915 C 30.83 -4.06 30.94 -4.14 31.05626 -4.22477 C 31.17 -4.31 31.28 -4.39 31.39179 -4.47391 C 31.5 -4.56 31.61 -4.64 31.72249 -4.72657 C 31.83 -4.81 31.94 -4.9 32.04828 -4.98274 C 32.16 -5.07 32.26 -5.16 32.36906 -5.24241 C 32.48 -5.33 32.58 -5.42 32.68476 -5.50556 C 32.79 -5.59 32.89 -5.68 32.99527 -5.77219 C 33.1 -5.86 33.2 -5.95 33.30051 -6.04228 C 33.4 -6.13 33.5 -6.22 33.60038 -6.31582 C 33.7 -6.41 33.8 -6.5 33.89479 -6.59279 C 33.99 -6.69 34.09 -6.78 34.18364 -6.87317 C 34.37 -7.06 34.56 -7.25 34.74427 -7.4441 C 34.93 -7.64 35.11 -7.83 35.28144 -8.02843 C 35.63 -8.42 35.97 -8.83 36.28204 -9.23654 C 41.3 -15.95 40.48 -22.7 38.30055 -26.55712 C 35.84 -35.43 13.52 -47.05 -11.95105 -42.35984 C -52.34 -27.65 -53.31 -10.48 -7.2761 4.0255" />
    <path d="M 7.29382 4.0255 C 7.72 3.98 8.14 3.93 8.55736 3.87902 C 8.98 3.83 9.4 3.77 9.8126 3.70898 C 10.23 3.65 10.64 3.58 11.05839 3.51546 C 11.47 3.45 11.88 3.37 12.29359 3.29856 C 12.7 3.22 13.11 3.14 13.51709 3.05833 C 13.92 2.97 14.33 2.89 14.72777 2.79487 C 15.13 2.7 15.53 2.61 15.92453 2.50822 C 16.32 2.41 16.71 2.31 17.10631 2.19845 C 17.5 2.09 17.89 1.98 18.27202 1.8656 C 18.66 1.75 19.04 1.63 19.42062 1.50973 C 19.8 1.39 20.18 1.26 20.55107 1.13087 C 20.92 1 21.3 0.87 21.66233 0.72905 C 22.03 0.59 22.39 0.45 22.7534 0.30431 C 23.11 0.16 23.47 0.01 23.82328 -0.14335 C 24.18 -0.3 24.53 -0.45 24.87097 -0.6139 C 25.22 -0.77 25.56 -0.94 25.89551 -1.10735" />
    <path d="M -38.54644 -12.99909 C -38.6 -12.87 -38.66 -12.74 -38.71629 -12.61273 C -38.77 -12.48 -38.82 -12.35 -38.87608 -12.22353 C -38.93 -12.09 -38.98 -11.96 -39.02565 -11.83164 C -39.07 -11.7 -39.12 -11.57 -39.16488 -11.43721 C -39.21 -11.31 -39.25 -11.17 -39.29363 -11.04042 C -39.33 -10.91 -39.37 -10.77 -39.41179 -10.64144 C -39.45 -10.51 -39.49 -10.37 -39.51924 -10.24042 C -39.55 -10.11 -39.59 -9.97 -39.61589 -9.83757 C -39.65 -9.7 -39.67 -9.57 -39.70164 -9.43305 C -39.73 -9.3 -39.75 -9.16 -39.77642 -9.02705 C -39.8 -8.89 -39.82 -8.76 -39.84014 -8.61978 C -39.86 -8.48 -39.88 -8.35 -39.89274 -8.21143 C -39.91 -8.08 -39.92 -7.94 -39.93417 -7.80221 C -39.95 -7.67 -39.96 -7.53 -39.96438 -7.39232 C -39.97 -7.26 -39.98 -7.12 -39.98334 -6.98197 C -39.99 -6.85 -39.99 -6.71 -39.99101 -6.5714 C -39.99 -6.47 -39.99 -6.37 -39.98939 -6.26604 C -39.99 -6.16 -39.99 -6.06 -39.98154 -5.96074 C -39.98 -5.86 -39.97 -5.76 -39.96746 -5.65559 C -39.96 -5.55 -39.95 -5.45 -39.94715 -5.35068 C -39.94 -5.25 -39.93 -5.15 -39.92063 -5.04609 C -39.91 -4.94 -39.9 -4.84 -39.88792 -4.74191 C -39.88 -4.64 -39.86 -4.54 -39.84903 -4.43823 C -39.84 -4.34 -39.82 -4.24 -39.80399 -4.13512 C -39.79 -4.03 -39.77 -3.93 -39.75282 -3.83267 C -39.73 -3.73 -39.72 -3.63 -39.69554 -3.53097 C -39.66 -3.33 -39.61 -3.13 -39.56281 -2.93009 C -39.47 -2.53 -39.35 -2.13 -39.22574 -1.74065 C -38.59 0.22 -37.56 2.09 -36.23242 3.80833 C -35 6.12 -27.39 14.26 -7.2761 17.02905" />
    <path d="M 38.56424 -12.99901 C 38.63 -12.85 38.7 -12.7 38.75998 -12.55141 C 38.82 -12.4 38.88 -12.25 38.94219 -12.10005 C 39 -11.95 39.06 -11.8 39.11065 -11.64515 C 39.16 -11.49 39.22 -11.34 39.26515 -11.18695 C 39.3 -11.09 39.32 -11 39.35297 -10.90424 C 39.38 -10.81 39.41 -10.72 39.43543 -10.62045 C 39.46 -10.53 39.49 -10.43 39.51248 -10.33563 C 39.54 -10.24 39.56 -10.15 39.5841 -10.04986 C 39.61 -9.95 39.63 -9.86 39.65023 -9.76321 C 39.67 -9.67 39.69 -9.57 39.71086 -9.47573 C 39.73 -9.38 39.75 -9.28 39.76594 -9.1875 C 39.78 -9.09 39.8 -9 39.81546 -8.89859 C 39.83 -8.8 39.85 -8.71 39.85939 -8.60907 C 39.87 -8.51 39.89 -8.42 39.8977 -8.31901 C 39.91 -8.22 39.92 -8.13 39.93037 -8.02848 C 39.94 -7.93 39.95 -7.83 39.95739 -7.73756 C 39.97 -7.64 39.97 -7.54 39.97875 -7.44632 C 39.98 -7.35 39.99 -7.25 39.99443 -7.15483 C 40 -7.06 40 -6.96 40.00443 -6.86317 C 40.01 -6.77 40.01 -6.67 40.00873 -6.57143 C 40.01 -6.43 40.01 -6.28 40.00453 -6.13549 C 40 -5.99 40 -5.84 39.98762 -5.69974 C 39.98 -5.55 39.97 -5.41 39.95801 -5.26445 C 39.95 -5.12 39.93 -4.97 39.91575 -4.82986 C 39.9 -4.69 39.88 -4.54 39.86088 -4.39624 C 39.84 -4.25 39.82 -4.11 39.79349 -3.96382 C 39.77 -3.82 39.74 -3.68 39.71363 -3.53285 C 39.68 -3.39 39.65 -3.25 39.62141 -3.10354 C 39.36 -1.96 38.97 -0.84 38.45275 0.24484 C 37.56 2.95 32.41 8.93 25.89551 11.89619" />
    <path d="M 7.29382 17.02905 C 7.72 16.98 8.14 16.94 8.55737 16.88257 C 8.98 16.83 9.4 16.77 9.81262 16.71252 C 10.23 16.65 10.64 16.59 11.05841 16.519 C 11.47 16.45 11.88 16.38 12.29362 16.30209 C 12.7 16.23 13.11 16.15 13.51712 16.06187 C 13.92 15.98 14.33 15.89 14.7278 15.7984 C 15.13 15.71 15.53 15.61 15.92457 15.51175 C 16.32 15.41 16.72 15.31 17.10635 15.20197 C 17.5 15.09 17.89 14.98 18.27206 14.86913 C 18.66 14.75 19.04 14.64 19.42066 14.51326 C 19.8 14.39 20.18 14.26 20.55111 14.1344 C 20.92 14 21.3 13.87 21.66237 13.73259 C 22.03 13.59 22.39 13.45 22.75343 13.30784 C 23.11 13.16 23.47 13.01 23.8233 12.86019 C 24.18 12.71 24.53 12.55 24.87098 12.38964 C 25.22 12.23 25.56 12.06 25.89551 11.89619" />
    <path d="M -38.54645 0.00446 C -38.6 0.13 -38.66 0.26 -38.7163 0.39082 C -38.77 0.52 -38.82 0.65 -38.87608 0.78003 C -38.93 0.91 -38.98 1.04 -39.02565 1.17192 C -39.07 1.3 -39.12 1.43 -39.16488 1.56634 C -39.21 1.7 -39.25 1.83 -39.29363 1.96313 C -39.33 2.1 -39.37 2.23 -39.41179 2.36212 C -39.45 2.5 -39.49 2.63 -39.51924 2.76313 C -39.55 2.9 -39.59 3.03 -39.61589 3.16598 C -39.65 3.3 -39.67 3.44 -39.70164 3.5705 C -39.73 3.71 -39.75 3.84 -39.77642 3.97649 C -39.8 4.11 -39.82 4.25 -39.84014 4.38376 C -39.86 4.52 -39.88 4.66 -39.89274 4.79211 C -39.91 4.93 -39.92 5.06 -39.93417 5.20134 C -39.95 5.34 -39.96 5.47 -39.96438 5.61123 C -39.97 5.75 -39.98 5.88 -39.98334 6.02157 C -39.99 6.16 -39.99 6.3 -39.99101 6.43214 C -39.99 6.53 -39.99 6.64 -39.98939 6.7375 C -39.99 6.84 -39.99 6.94 -39.98154 7.0428 C -39.98 7.14 -39.97 7.25 -39.96746 7.34795 C -39.96 7.45 -39.95 7.55 -39.94715 7.65286 C -39.94 7.75 -39.93 7.86 -39.92063 7.95745 C -39.91 8.06 -39.9 8.16 -39.88792 8.26163 C -39.88 8.36 -39.86 8.46 -39.84903 8.56531 C -39.84 8.67 -39.82 8.77 -39.80399 8.86842 C -39.79 8.97 -39.77 9.07 -39.75282 9.17087 C -39.73 9.27 -39.72 9.37 -39.69554 9.47257 C -39.66 9.67 -39.61 9.87 -39.56281 10.07345 C -39.47 10.47 -39.35 10.87 -39.22574 11.26289 C -38.59 13.22 -37.56 15.09 -36.23242 16.81187 C -35 19.12 -27.39 27.27 -7.2761 30.03259" />
    <path d="M 38.56418 0.00438 C 38.63 0.15 38.7 0.3 38.75993 0.45201 C 38.82 0.6 38.88 0.75 38.94216 0.90342 C 39 1.05 39.06 1.21 39.11063 1.35836 C 39.16 1.51 39.22 1.66 39.26515 1.81659 C 39.3 1.91 39.32 2 39.35297 2.0993 C 39.38 2.19 39.41 2.29 39.43543 2.3831 C 39.46 2.48 39.49 2.57 39.51248 2.66791 C 39.54 2.76 39.56 2.86 39.5841 2.95368 C 39.61 3.05 39.63 3.14 39.65023 3.24034 C 39.67 3.34 39.69 3.43 39.71086 3.52781 C 39.73 3.62 39.75 3.72 39.76594 3.81604 C 39.78 3.91 39.8 4.01 39.81546 4.10495 C 39.83 4.2 39.85 4.3 39.85939 4.39447 C 39.87 4.49 39.89 4.59 39.8977 4.68453 C 39.91 4.78 39.92 4.88 39.93037 4.97506 C 39.94 5.07 39.95 5.17 39.95739 5.26598 C 39.97 5.36 39.97 5.46 39.97875 5.55723 C 39.98 5.65 39.99 5.75 39.99443 5.84871 C 40 5.95 40 6.04 40.00443 6.14037 C 40.01 6.24 40.01 6.33 40.00873 6.43212 C 40.01 6.58 40.01 6.72 40.00453 6.86805 C 40 7.01 40 7.16 39.98762 7.3038 C 39.98 7.45 39.97 7.59 39.95801 7.7391 C 39.95 7.88 39.93 8.03 39.91575 8.17368 C 39.9 8.32 39.88 8.46 39.86088 8.6073 C 39.84 8.75 39.82 8.9 39.79349 9.03972 C 39.77 9.18 39.74 9.33 39.71363 9.4707 C 39.68 9.61 39.65 9.76 39.62141 9.9 C 39.36 11.04 38.97 12.16 38.45275 13.24839 C 37.56 15.95 32.41 21.94 25.89551 24.89974" />
    <path d="M 38.56417 13.00794 C 38.62 13.14 38.68 13.26 38.73356 13.39324 C 38.79 13.52 38.84 13.65 38.89294 13.78135 C 38.94 13.91 38.99 14.04 39.04217 14.17215 C 39.09 14.3 39.14 14.43 39.18111 14.56546 C 39.23 14.7 39.27 14.83 39.30964 14.96112 C 39.35 15.09 39.39 15.23 39.42763 15.35898 C 39.47 15.49 39.5 15.63 39.53498 15.75885 C 39.57 15.89 39.6 16.03 39.63159 16.16056 C 39.66 16.29 39.69 16.43 39.71737 16.56393 C 39.74 16.7 39.77 16.83 39.79223 16.96876 C 39.82 17.1 39.84 17.24 39.8561 17.37488 C 39.88 17.51 39.89 17.65 39.90892 17.78207 C 39.92 17.92 39.94 18.05 39.95063 18.19014 C 39.96 18.33 39.97 18.46 39.98119 18.59888 C 39.99 18.74 40 18.87 40.00055 19.00807 C 40.01 19.14 40.01 19.28 40.0087 19.4175 C 40.01 19.56 40.01 19.71 40.00489 19.85876 C 40 20.01 40 20.15 39.98806 20.29984 C 39.98 20.45 39.97 20.59 39.95822 20.74046 C 39.95 20.89 39.93 21.03 39.91542 21.18035 C 39.9 21.33 39.88 21.47 39.85971 21.61925 C 39.84 21.77 39.82 21.91 39.79116 22.05692 C 39.77 22.2 39.74 22.35 39.70986 22.4931 C 39.68 22.64 39.65 22.78 39.61588 22.92755 C 39.58 23.07 39.55 23.22 39.50934 23.36004 C 39.47 23.5 39.43 23.65 39.39035 23.79035 C 39.35 23.93 39.3 24.08 39.25904 24.21825 C 39.21 24.36 39.17 24.5 39.11556 24.64353 C 38.92 25.21 38.68 25.77 38.4231 26.31441 C 36.11 31.15 31.53 35.1 25.89551 37.90328" />
    <path d="M -38.54646 13.00798 C -38.6 13.14 -38.66 13.26 -38.71585 13.39327 C -38.77 13.52 -38.82 13.65 -38.87523 13.78139 C -38.93 13.91 -38.98 14.04 -39.02446 14.17218 C -39.07 14.3 -39.12 14.43 -39.1634 14.56549 C -39.21 14.7 -39.25 14.83 -39.29192 14.96115 C -39.33 15.09 -39.37 15.23 -39.40992 15.359 C -39.45 15.49 -39.48 15.63 -39.51727 15.75887 C -39.55 15.89 -39.58 16.03 -39.61387 16.16058 C -39.64 16.29 -39.67 16.43 -39.69965 16.56394 C -39.73 16.7 -39.75 16.83 -39.77451 16.96878 C -39.8 17.1 -39.82 17.24 -39.83838 17.37489 C -39.86 17.51 -39.88 17.65 -39.8912 17.78208 C -39.91 17.92 -39.92 18.05 -39.93291 18.19014 C -39.94 18.33 -39.96 18.46 -39.96347 18.59888 C -39.97 18.74 -39.98 18.87 -39.98283 19.00807 C -39.99 19.14 -39.99 19.28 -39.99097 19.4175 C -39.99 19.56 -39.99 19.71 -39.98717 19.85876 C -39.98 20.01 -39.98 20.15 -39.97033 20.29984 C -39.96 20.45 -39.95 20.59 -39.94049 20.74046 C -39.93 20.89 -39.91 21.03 -39.89769 21.18035 C -39.88 21.33 -39.86 21.47 -39.84199 21.61925 C -39.82 21.77 -39.8 21.91 -39.77344 22.05692 C -39.75 22.2 -39.72 22.35 -39.69213 22.4931 C -39.66 22.64 -39.63 22.78 -39.59816 22.92755 C -39.56 23.07 -39.53 23.22 -39.49162 23.36004 C -39.45 23.5 -39.41 23.65 -39.37263 23.79035 C -39.29 24.08 -39.2 24.36 -39.09784 24.64353 C -38.9 25.21 -38.67 25.77 -38.40538 26.31441 C -36.73 29.83 -33.82 32.91 -30.20687 35.37427 C -17.9 44.47 9.03 46.49 25.89551 37.90328" />
</svg>