<svg version="1.1" xmlns="http://www.w3.org/2000/svg" viewBox="-41.009705682890086 -44.76830464401366 82.03819063316233 89.52442072659068" fill="none" stroke="black" stroke-width="0.6%" vector-effect="non-scaling-stroke">
    <path d="M 7.32335 4.01317 C 7.02 4.05 6.72 4.08 6.42278 4.10328 C 6.12 4.13 5.82 4.16 5.51775 4.18155 C 5.22 4.21 4.91 4.23 4.60889 4.24793 C 4.31 4.27 4 4.29 3.69685 4.30237 C 3.39 4.32 3.09 4.33 2.78228 4.34484 C 2.48 4.36 2.17 4.37 1.86582 4.37531 C 1.56 4.38 1.25 4.39 0.94814 4.39375 C 0.64 4.4 0.34 4.4 0.02991 4.40016 C -0.28 4.4 -0.59 4.4 -0.8958 4.39444 C -1.2 4.39 -1.51 4.38 -1.82098 4.37649 C -2.13 4.37 -2.44 4.36 -2.74495 4.34631 C -3.05 4.33 -3.36 4.32 -3.66703 4.30394 C -3.97 4.29 -4.28 4.27 -4.58655 4.2494 C -4.89 4.23 -5.2 4.21 -5.50285 4.18272 C -5.81 4.16 -6.11 4.13 -6.41528 4.10396 C -6.72 4.08 -7.02 4.05 -7.32318 4.01317" />
    <path d="M 7.32335 17.01749 C 7.02 17.05 6.72 17.08 6.42278 17.10759 C 6.12 17.14 5.82 17.16 5.51775 17.18586 C 5.22 17.21 4.91 17.23 4.60889 17.25225 C 4.31 17.27 4 17.29 3.69685 17.30669 C 3.39 17.32 3.09 17.34 2.78228 17.34916 C 2.48 17.36 2.17 17.37 1.86582 17.37963 C 1.56 17.39 1.25 17.39 0.94814 17.39807 C 0.64 17.4 0.34 17.4 0.02991 17.40448 C -0.28 17.4 -0.59 17.4 -0.8958 17.39876 C -1.2 17.39 -1.51 17.39 -1.82098 17.3808 C -2.13 17.37 -2.44 17.36 -2.74495 17.35063 C -3.05 17.34 -3.36 17.32 -3.66703 17.30826 C -3.97 17.29 -4.28 17.27 -4.58655 17.25371 C -4.89 17.23 -5.2 17.21 -5.50285 17.18704 C -5.81 17.16 -6.11 17.14 -6.41528 17.10828 C -6.72 17.08 -7.02 17.05 -7.32318 17.01749" />
    <path d="M -7.32318 30.0218 C -7.02 30.05 -6.71 30.08 -6.40944 30.11314 C -6.1 30.14 -5.8 30.17 -5.49113 30.19228 C -5.18 30.22 -4.88 30.24 -4.5689 30.25919 C -4.26 30.28 -3.95 30.3 -3.64342 30.31381 C -3.33 30.33 -3.03 30.34 -2.71537 30.3561 C -2.41 30.37 -2.1 30.38 -1.78542 30.38604 C -1.48 30.39 -1.16 30.4 -0.85427 30.40359 C -0.54 30.41 -0.23 30.41 0.07738 30.40876 C 0.38 30.41 0.69 30.41 0.98967 30.40181 C 1.29 30.4 1.6 30.39 1.90138 30.38299 C 2.21 30.37 2.51 30.36 2.81186 30.35229 C 3.12 30.34 3.42 30.33 3.72046 30.30975 C 4.02 30.29 4.33 30.28 4.62654 30.25539 C 4.93 30.24 5.23 30.21 5.52946 30.18925 C 5.83 30.17 6.13 30.14 6.42861 30.11137 C 6.73 30.08 7.03 30.05 7.32335 30.0218 C 7.74 29.98 8.16 29.93 8.58372 29.875 C 9 29.82 9.42 29.77 9.83579 29.70476 C 10.25 29.64 10.67 29.58 11.07843 29.51115 C 11.49 29.44 11.9 29.37 12.31051 29.29426 C 12.72 29.22 13.13 29.14 13.5309 29.05417 C 13.94 28.97 14.34 28.88 14.73852 28.79095 C 15.14 28.7 15.54 28.6 15.93227 28.50466 C 16.33 28.41 16.72 28.3 17.11109 28.19537 C 17.5 28.09 17.89 27.98 18.2739 27.86311 C 18.66 27.75 19.04 27.63 19.41968 27.50793 C 19.8 27.39 20.17 27.26 20.54737 27.12988 C 20.92 27 21.29 26.87 21.65597 26.72898 C 22.02 26.59 22.39 26.45 22.74446 26.30526 C 23.1 26.16 23.46 26.01 23.81186 25.85875 C 24.16 25.71 24.51 25.55 24.85718 25.38944 C 25.2 25.23 25.54 25.07 25.87946 24.89735" />
    <path d="M 17.67777 -19.36568 A 25 12.45968 180 0 0 21.93965 -34.1495 A 25 12.45968 180 1 0 17.67777 -19.36568 Z" />
    <path d="M 25.87946 -1.11128 C 26.01 -1.18 26.14 -1.24 26.27471 -1.31103 C 26.41 -1.38 26.54 -1.45 26.66614 -1.51426 C 26.8 -1.58 26.93 -1.65 27.0537 -1.721 C 27.18 -1.79 27.31 -1.86 27.43733 -1.93124 C 27.56 -2 27.69 -2.07 27.81695 -2.14501 C 27.94 -2.22 28.07 -2.29 28.1925 -2.3623 C 28.32 -2.44 28.44 -2.51 28.56392 -2.58312 C 28.69 -2.66 28.81 -2.73 28.93113 -2.80747 C 29.05 -2.88 29.17 -2.96 29.29406 -3.03536 C 29.41 -3.11 29.53 -3.19 29.65263 -3.26679 C 29.77 -3.34 29.89 -3.42 30.00678 -3.50175 C 30.12 -3.58 30.24 -3.66 30.35643 -3.74026 C 30.47 -3.82 30.59 -3.9 30.70149 -3.98229 C 30.82 -4.06 30.93 -4.15 31.04189 -4.22786 C 31.15 -4.31 31.27 -4.39 31.37754 -4.47695 C 31.49 -4.56 31.6 -4.64 31.70837 -4.72956 C 31.82 -4.81 31.93 -4.9 32.03428 -4.98567 C 32.14 -5.07 32.25 -5.16 32.35519 -5.24529 C 32.46 -5.33 32.57 -5.42 32.67101 -5.50839 C 32.78 -5.6 32.88 -5.69 32.98165 -5.77497 C 33.08 -5.86 33.19 -5.95 33.28701 -6.04502 C 33.39 -6.14 33.49 -6.23 33.58701 -6.31851 C 33.69 -6.41 33.78 -6.5 33.88155 -6.59543 C 33.98 -6.69 34.08 -6.78 34.17053 -6.87577 C 34.36 -7.06 34.55 -7.25 34.73141 -7.44662 C 34.91 -7.64 35.09 -7.83 35.26883 -8.03087 C 35.62 -8.42 35.95 -8.83 36.26995 -9.23885 C 41.46 -16.26 40.32 -23.03 38.29524 -26.555 C 35.84 -35.44 13.51 -47.02 -11.81112 -42.38947 C -54.32 -19.53 -54.61 -16.3 -7.32318 4.01317" />
    <path d="M 7.32335 4.01317 C 7.74 3.97 8.16 3.92 8.58371 3.86637 C 9 3.81 9.42 3.76 9.83578 3.69612 C 10.25 3.64 10.67 3.57 11.07841 3.50251 C 11.49 3.43 11.9 3.36 12.31048 3.28563 C 12.72 3.21 13.13 3.13 13.53087 3.04555 C 13.94 2.96 14.34 2.87 14.73848 2.78233 C 15.14 2.69 15.54 2.6 15.93223 2.49604 C 16.33 2.4 16.72 2.29 17.11105 2.18675 C 17.5 2.08 17.89 1.97 18.27386 1.85449 C 18.66 1.74 19.04 1.62 19.41964 1.49931 C 19.8 1.38 20.17 1.25 20.54733 1.12126 C 20.92 0.99 21.29 0.86 21.65594 0.72036 C 22.02 0.58 22.39 0.44 22.74443 0.29664 C 23.1 0.15 23.46 0 23.81184 -0.14988 C 24.16 -0.3 24.51 -0.46 24.85717 -0.61919 C 25.2 -0.78 25.54 -0.94 25.87946 -1.11128" />
    <path d="M -38.55475 -13.00428 C -38.61 -12.88 -38.67 -12.75 -38.72477 -12.6176 C -38.78 -12.49 -38.83 -12.36 -38.88472 -12.22808 C -38.94 -12.1 -38.99 -11.97 -39.03444 -11.83587 C -39.08 -11.7 -39.13 -11.57 -39.17379 -11.44111 C -39.22 -11.31 -39.26 -11.18 -39.30264 -11.04399 C -39.34 -10.91 -39.38 -10.78 -39.42088 -10.64467 C -39.46 -10.51 -39.49 -10.38 -39.5284 -10.24331 C -39.56 -10.11 -39.59 -9.97 -39.6251 -9.84011 C -39.66 -9.71 -39.68 -9.57 -39.71087 -9.43525 C -39.74 -9.3 -39.76 -9.16 -39.78565 -9.02891 C -39.81 -8.89 -39.83 -8.76 -39.84935 -8.62129 C -39.87 -8.49 -39.89 -8.35 -39.90191 -8.21259 C -39.92 -8.08 -39.93 -7.94 -39.94328 -7.80301 C -39.96 -7.67 -39.97 -7.53 -39.97341 -7.39277 C -39.98 -7.26 -39.99 -7.12 -39.99226 -6.98208 C -40 -6.85 -40 -6.71 -39.99981 -6.57116 C -40 -6.47 -40 -6.37 -39.99809 -6.26587 C -40 -6.16 -39.99 -6.06 -39.99014 -5.96064 C -39.99 -5.86 -39.98 -5.76 -39.97595 -5.65556 C -39.97 -5.55 -39.96 -5.45 -39.95555 -5.35072 C -39.95 -5.25 -39.94 -5.15 -39.92894 -5.04621 C -39.92 -4.94 -39.91 -4.84 -39.89613 -4.7421 C -39.88 -4.64 -39.87 -4.54 -39.85715 -4.4385 C -39.84 -4.34 -39.83 -4.24 -39.81202 -4.13547 C -39.8 -4.03 -39.78 -3.93 -39.76076 -3.8331 C -39.74 -3.73 -39.72 -3.63 -39.7034 -3.53147 C -39.66 -3.33 -39.62 -3.13 -39.5705 -2.93076 C -39.47 -2.53 -39.36 -2.13 -39.23312 -1.74166 C -38.6 0.22 -37.57 2.09 -36.23851 3.80595 C -35 6.12 -27.4 14.24 -7.32318 17.01749" />
    <path d="M 38.555 -13.00417 C 38.62 -12.86 38.69 -12.71 38.75147 -12.55496 C 38.81 -12.4 38.88 -12.25 38.93431 -12.10195 C 38.99 -11.95 39.05 -11.8 39.1033 -11.64537 C 39.16 -11.49 39.21 -11.34 39.25823 -11.18548 C 39.29 -11.09 39.32 -11 39.34592 -10.90284 C 39.37 -10.81 39.4 -10.71 39.42825 -10.61911 C 39.45 -10.52 39.48 -10.43 39.50518 -10.33437 C 39.53 -10.24 39.55 -10.14 39.57667 -10.04867 C 39.6 -9.95 39.62 -9.86 39.64269 -9.76208 C 39.66 -9.67 39.68 -9.57 39.7032 -9.47468 C 39.72 -9.38 39.74 -9.28 39.75816 -9.18653 C 39.78 -9.09 39.79 -8.99 39.80757 -8.89769 C 39.82 -8.8 39.84 -8.7 39.85138 -8.60825 C 39.87 -8.51 39.88 -8.42 39.88957 -8.31827 C 39.9 -8.22 39.91 -8.12 39.92214 -8.02782 C 39.93 -7.93 39.94 -7.83 39.94905 -7.73698 C 39.96 -7.64 39.96 -7.54 39.9703 -7.44582 C 39.98 -7.35 39.98 -7.25 39.98588 -7.15442 C 39.99 -7.06 39.99 -6.96 39.99577 -6.86285 C 40 -6.77 40 -6.67 39.99998 -6.57119 C 40 -6.43 40 -6.28 39.99564 -6.13534 C 39.99 -5.99 39.99 -5.84 39.97858 -5.69969 C 39.97 -5.55 39.96 -5.41 39.94883 -5.26449 C 39.94 -5.12 39.92 -4.97 39.90643 -4.83 C 39.89 -4.69 39.87 -4.54 39.85144 -4.39648 C 39.83 -4.25 39.81 -4.11 39.78391 -3.96417 C 39.76 -3.82 39.73 -3.68 39.70393 -3.5333 C 39.68 -3.39 39.64 -3.25 39.61158 -3.10411 C 39.35 -1.96 38.95 -0.84 38.4421 0.24334 C 37.55 2.95 32.4 8.93 25.87946 11.89303" />
    <path d="M 7.32335 17.01749 C 7.74 16.97 8.16 16.92 8.58372 16.87069 C 9 16.82 9.42 16.76 9.83579 16.70044 C 10.25 16.64 10.67 16.58 11.07843 16.50683 C 11.49 16.44 11.9 16.37 12.31051 16.28994 C 12.72 16.21 13.13 16.13 13.5309 16.04986 C 13.94 15.97 14.34 15.88 14.73852 15.78664 C 15.14 15.7 15.54 15.6 15.93227 15.50035 C 16.33 15.4 16.72 15.3 17.11109 15.19105 C 17.5 15.08 17.89 14.97 18.2739 14.85879 C 18.66 14.74 19.04 14.63 19.41968 14.50362 C 19.8 14.38 20.17 14.26 20.54737 14.12556 C 20.92 14 21.29 13.86 21.65597 13.72467 C 22.02 13.59 22.39 13.45 22.74446 13.30095 C 23.1 13.16 23.46 13.01 23.81186 12.85443 C 24.16 12.7 24.51 12.55 24.85718 12.38512 C 25.2 12.22 25.54 12.06 25.87946 11.89303" />
    <path d="M -38.55475 0.00006 C -38.61 0.13 -38.67 0.26 -38.72478 0.38673 C -38.78 0.52 -38.83 0.65 -38.88472 0.77625 C -38.94 0.91 -38.99 1.04 -39.03444 1.16846 C -39.08 1.3 -39.13 1.43 -39.17379 1.56321 C -39.22 1.7 -39.26 1.83 -39.30265 1.96034 C -39.34 2.09 -39.38 2.23 -39.42089 2.35966 C -39.46 2.49 -39.49 2.63 -39.52841 2.76101 C -39.56 2.9 -39.59 3.03 -39.6251 3.16421 C -39.66 3.3 -39.68 3.43 -39.71087 3.56908 C -39.74 3.7 -39.76 3.84 -39.78565 3.97541 C -39.81 4.11 -39.83 4.25 -39.84935 4.38303 C -39.87 4.52 -39.89 4.66 -39.90192 4.79173 C -39.92 4.93 -39.93 5.06 -39.94328 5.20131 C -39.96 5.34 -39.97 5.47 -39.97341 5.61154 C -39.98 5.75 -39.99 5.89 -39.99226 6.02223 C -40 6.16 -40 6.3 -39.99981 6.43315 C -40 6.53 -40 6.64 -39.99809 6.73845 C -40 6.84 -39.99 6.94 -39.99014 7.04368 C -39.99 7.15 -39.98 7.25 -39.97595 7.34875 C -39.97 7.45 -39.96 7.55 -39.95555 7.65359 C -39.95 7.76 -39.94 7.86 -39.92894 7.95811 C -39.92 8.06 -39.91 8.16 -39.89613 8.26221 C -39.88 8.36 -39.87 8.46 -39.85715 8.56582 C -39.84 8.67 -39.83 8.77 -39.81202 8.86885 C -39.8 8.97 -39.78 9.07 -39.76076 9.17122 C -39.74 9.27 -39.72 9.37 -39.7034 9.47285 C -39.66 9.67 -39.62 9.87 -39.5705 10.07356 C -39.47 10.47 -39.36 10.87 -39.23312 11.26266 C -38.6 13.22 -37.57 15.09 -36.23851 16.81026 C -35 19.12 -27.4 27.25 -7.32318 30.0218" />
    <path d="M 38.55493 -0.00002 C 38.62 0.15 38.69 0.3 38.75142 0.44923 C 38.81 0.6 38.88 0.75 38.93428 0.90228 C 38.99 1.05 39.05 1.21 39.10329 1.3589 C 39.16 1.51 39.21 1.66 39.25823 1.81883 C 39.29 1.91 39.32 2.01 39.34592 2.10148 C 39.37 2.2 39.4 2.29 39.42825 2.3852 C 39.45 2.48 39.48 2.57 39.50518 2.66995 C 39.53 2.77 39.55 2.86 39.57667 2.95565 C 39.6 3.05 39.62 3.15 39.64269 3.24223 C 39.66 3.34 39.68 3.43 39.7032 3.52964 C 39.72 3.63 39.74 3.72 39.75816 3.81779 C 39.78 3.91 39.79 4.01 39.80757 4.10662 C 39.82 4.2 39.84 4.3 39.85138 4.39607 C 39.87 4.49 39.88 4.59 39.88957 4.68605 C 39.9 4.78 39.91 4.88 39.92214 4.9765 C 39.93 5.07 39.94 5.17 39.94905 5.26734 C 39.96 5.36 39.96 5.46 39.9703 5.5585 C 39.98 5.66 39.98 5.75 39.98588 5.8499 C 39.99 5.95 39.99 6.04 39.99577 6.14147 C 40 6.24 40 6.34 39.99998 6.43313 C 40 6.58 40 6.72 39.99564 6.86897 C 39.99 7.01 39.99 7.16 39.97858 7.30463 C 39.97 7.45 39.96 7.59 39.94883 7.73983 C 39.94 7.88 39.92 8.03 39.90643 8.17431 C 39.89 8.32 39.87 8.46 39.85144 8.60783 C 39.83 8.75 39.81 8.9 39.78391 9.04015 C 39.76 9.18 39.73 9.33 39.70393 9.47102 C 39.68 9.61 39.64 9.76 39.61158 9.90021 C 39.35 11.04 38.95 12.16 38.4421 13.24766 C 37.55 15.95 32.4 21.94 25.87946 24.89735" />
    <path d="M 38.55492 13.00431 C 38.61 13.13 38.67 13.26 38.72457 13.39011 C 38.78 13.52 38.83 13.65 38.88419 13.77874 C 38.94 13.91 38.99 14.04 39.03362 14.17005 C 39.08 14.3 39.13 14.43 39.17274 14.56389 C 39.22 14.7 39.26 14.83 39.30141 14.96009 C 39.34 15.09 39.38 15.23 39.41952 15.35849 C 39.46 15.49 39.49 15.63 39.52695 15.75891 C 39.56 15.89 39.59 16.03 39.62361 16.16117 C 39.65 16.3 39.68 16.43 39.70941 16.56509 C 39.74 16.7 39.76 16.84 39.78426 16.97048 C 39.81 17.11 39.83 17.24 39.84808 17.37715 C 39.87 17.51 39.89 17.65 39.90083 17.7849 C 39.92 17.92 39.93 18.06 39.94243 18.19353 C 39.95 18.33 39.96 18.47 39.97284 18.60282 C 39.98 18.74 39.99 18.88 39.99203 19.01257 C 40 19.15 40 19.29 39.99997 19.42255 C 40 19.57 40 19.72 39.99592 19.86374 C 39.99 20.01 39.99 20.16 39.97885 20.30473 C 39.97 20.45 39.96 20.6 39.94877 20.74527 C 39.94 20.89 39.92 21.04 39.90573 21.18507 C 39.89 21.33 39.87 21.48 39.84979 21.62388 C 39.83 21.77 39.81 21.92 39.78101 22.06144 C 39.76 22.21 39.73 22.35 39.69947 22.49752 C 39.67 22.64 39.64 22.79 39.60527 22.93186 C 39.57 23.08 39.54 23.22 39.49851 23.36424 C 39.46 23.51 39.42 23.65 39.37931 23.79443 C 39.34 23.94 39.29 24.08 39.24779 24.22222 C 39.2 24.36 39.15 24.51 39.1041 24.64737 C 38.9 25.21 38.67 25.77 38.41086 26.31772 C 36.1 31.16 31.51 35.1 25.87946 37.90167" />
    <path d="M -38.55476 13.00435 C -38.61 13.13 -38.67 13.26 -38.72441 13.39014 C -38.78 13.52 -38.83 13.65 -38.88403 13.77877 C -38.94 13.91 -38.99 14.04 -39.03346 14.17009 C -39.08 14.3 -39.13 14.43 -39.17258 14.56392 C -39.22 14.7 -39.26 14.83 -39.30125 14.96012 C -39.34 15.09 -39.38 15.23 -39.41935 15.35851 C -39.46 15.49 -39.49 15.63 -39.52678 15.75893 C -39.56 15.89 -39.59 16.03 -39.62344 16.16119 C -39.65 16.3 -39.68 16.43 -39.70924 16.5651 C -39.74 16.7 -39.76 16.84 -39.78409 16.97049 C -39.81 17.11 -39.83 17.24 -39.84791 17.37716 C -39.87 17.51 -39.88 17.65 -39.90066 17.78491 C -39.92 17.92 -39.93 18.06 -39.94226 18.19353 C -39.95 18.33 -39.96 18.47 -39.97267 18.60282 C -39.98 18.74 -39.99 18.88 -39.99186 19.01257 C -40 19.15 -40 19.29 -39.9998 19.42255 C -40 19.57 -40 19.72 -39.99575 19.86374 C -39.99 20.01 -39.99 20.16 -39.97867 20.30473 C -39.97 20.45 -39.96 20.6 -39.94859 20.74527 C -39.94 20.89 -39.92 21.04 -39.90556 21.18507 C -39.89 21.33 -39.87 21.48 -39.84961 21.62388 C -39.83 21.77 -39.81 21.92 -39.78084 22.06144 C -39.76 22.21 -39.73 22.35 -39.6993 22.49752 C -39.67 22.64 -39.64 22.79 -39.6051 22.93186 C -39.57 23.08 -39.54 23.22 -39.49834 23.36424 C -39.46 23.51 -39.42 23.65 -39.37914 23.79443 C -39.3 24.08 -39.2 24.36 -39.10393 24.64737 C -38.9 25.21 -38.67 25.77 -38.41069 26.31772 C -36.73 29.83 -33.82 32.91 -30.20639 35.37567 C -17.92 44.46 9.01 46.48 25.87946 37.90167" />
</svg>